<svg xmlns="http://www.w3.org/2000/svg" viewBox="0 0 1920 406.94"><defs><style>.cls-1{fill:#4452cf;}</style></defs><g id="Capa_2" data-name="Capa 2"><g id="Capa_1-2" data-name="Capa 1"><path class="cls-1" d="M1780,255a206.45,206.45,0,0,0-25,1.53,204.16,204.16,0,0,0-205.86-48.64,72,72,0,0,0-103-43.44,204.28,204.28,0,0,0-230.62-82.34,72,72,0,0,0-102.22-26.82,260,260,0,0,0-364.71,44,72,72,0,0,0-83.13,14.43,201.5,201.5,0,0,0-137.1,18.38,72,72,0,0,0-114,33.95,204.22,204.22,0,0,0-215.58,58.08A72,72,0,0,0,90.57,277H89.5A152.8,152.8,0,0,0,0,305.78V406.94H1920v-96.3A203.28,203.28,0,0,0,1780,255Z"/></g></g></svg>