<?xml version="1.0" encoding="utf-8"?>
<!-- Generator: Adobe Illustrator 24.1.3, SVG Export Plug-In . SVG Version: 6.00 Build 0)  -->
<svg version="1.1" id="Capa_1" xmlns="http://www.w3.org/2000/svg" xmlns:xlink="http://www.w3.org/1999/xlink" x="0px" y="0px"
	 viewBox="0 0 82.7 87.2" style="enable-background:new 0 0 82.7 87.2;" xml:space="preserve">
<style type="text/css">
	.st0{fill:#F1B2A9;}
</style>
<path class="st0" d="M43.2,55.4c-1.3,0-2.3,1.3-2.3,3c0,1.6,1,3,2.3,3c1.3,0,2.3-1.3,2.3-3C45.6,56.7,44.5,55.4,43.2,55.4z
	 M43.2,60.7c-0.9,0-1.6-1-1.6-2.3c0-1.3,0.7-2.3,1.6-2.3c0.9,0,1.6,1,1.6,2.3C44.9,59.7,44.1,60.7,43.2,60.7z"/>
<rect x="62.2" y="66.7" class="st0" width="0.7" height="2"/>
<rect x="63.8" y="51.9" class="st0" width="0.7" height="6.1"/>
<rect x="60.5" y="49.9" class="st0" width="0.7" height="6.1"/>
<rect x="63.8" y="30.6" class="st0" width="0.7" height="1"/>
<rect x="60.5" y="28.7" class="st0" width="0.7" height="1"/>
<rect x="63.8" y="33.8" class="st0" width="0.7" height="1"/>
<rect x="60.5" y="31.9" class="st0" width="0.7" height="1"/>
<rect x="63.8" y="37" class="st0" width="0.7" height="1"/>
<rect x="60.5" y="35.1" class="st0" width="0.7" height="1"/>
<rect x="63.8" y="40.2" class="st0" width="0.7" height="1"/>
<rect x="60.5" y="38.3" class="st0" width="0.7" height="1"/>
<rect x="63.8" y="43.4" class="st0" width="0.7" height="1"/>
<rect x="60.5" y="41.5" class="st0" width="0.7" height="1"/>
<rect x="63.8" y="61.9" class="st0" width="0.7" height="2.1"/>
<rect x="60.5" y="60" class="st0" width="0.7" height="2.1"/>
<rect x="51.9" y="61.7" class="st0" width="0.7" height="2"/>
<rect x="53.6" y="46.9" class="st0" width="0.7" height="6.1"/>
<rect x="50.2" y="45" class="st0" width="0.7" height="6.1"/>
<rect x="53.6" y="25.7" class="st0" width="0.7" height="1"/>
<rect x="50.2" y="23.8" class="st0" width="0.7" height="1"/>
<rect x="53.6" y="28.9" class="st0" width="0.7" height="1"/>
<rect x="50.2" y="27" class="st0" width="0.7" height="1"/>
<rect x="53.6" y="32.1" class="st0" width="0.7" height="1"/>
<rect x="50.2" y="30.1" class="st0" width="0.7" height="1"/>
<rect x="53.6" y="35.3" class="st0" width="0.7" height="1"/>
<rect x="50.2" y="33.3" class="st0" width="0.7" height="1"/>
<rect x="53.6" y="38.4" class="st0" width="0.7" height="1"/>
<rect x="50.2" y="36.5" class="st0" width="0.7" height="1"/>
<rect x="53.6" y="57" class="st0" width="0.7" height="2.1"/>
<rect x="50.2" y="55" class="st0" width="0.7" height="2.1"/>
<rect x="23.6" y="66.7" class="st0" width="0.7" height="2"/>
<rect x="21.9" y="51.9" class="st0" width="0.7" height="6.1"/>
<rect x="25.2" y="49.9" class="st0" width="0.7" height="6.1"/>
<rect x="21.9" y="30.6" class="st0" width="0.7" height="1"/>
<rect x="25.2" y="28.7" class="st0" width="0.7" height="1"/>
<rect x="21.9" y="33.8" class="st0" width="0.7" height="1"/>
<rect x="25.2" y="31.9" class="st0" width="0.7" height="1"/>
<rect x="21.9" y="37" class="st0" width="0.7" height="1"/>
<rect x="25.2" y="35.1" class="st0" width="0.7" height="1"/>
<rect x="21.9" y="40.2" class="st0" width="0.7" height="1"/>
<rect x="25.2" y="38.3" class="st0" width="0.7" height="1"/>
<rect x="21.9" y="43.4" class="st0" width="0.7" height="1"/>
<rect x="25.2" y="41.5" class="st0" width="0.7" height="1"/>
<rect x="21.9" y="61.9" class="st0" width="0.7" height="2.1"/>
<rect x="25.2" y="60" class="st0" width="0.7" height="2.1"/>
<rect x="33.9" y="61.7" class="st0" width="0.7" height="2"/>
<rect x="32.2" y="46.9" class="st0" width="0.7" height="6.1"/>
<rect x="35.5" y="45" class="st0" width="0.7" height="6.1"/>
<rect x="32.2" y="25.7" class="st0" width="0.7" height="1"/>
<rect x="35.5" y="23.8" class="st0" width="0.7" height="1"/>
<rect x="32.2" y="28.9" class="st0" width="0.7" height="1"/>
<rect x="35.5" y="27" class="st0" width="0.7" height="1"/>
<rect x="32.2" y="32.1" class="st0" width="0.7" height="1"/>
<rect x="35.5" y="30.1" class="st0" width="0.7" height="1"/>
<rect x="32.2" y="35.3" class="st0" width="0.7" height="1"/>
<rect x="35.5" y="33.3" class="st0" width="0.7" height="1"/>
<rect x="32.2" y="38.4" class="st0" width="0.7" height="1"/>
<rect x="35.5" y="36.5" class="st0" width="0.7" height="1"/>
<rect x="32.2" y="57" class="st0" width="0.7" height="2.1"/>
<rect x="35.5" y="55" class="st0" width="0.7" height="2.1"/>
<path class="st0" d="M80.7,54.4c1.8-13.7-4-27.3-15.1-35.4l0,0c-0.8-5.5-1.5-9.4-1.7-10.2c0.9-0.7,1.1-2,0.4-2.9
	c-0.7-0.9-2-1.1-2.9-0.4c-0.9,0.7-1.1,2-0.4,2.9c0.1,0.1,0.2,0.3,0.4,0.4c-0.1,0.6-0.6,3.1-1.2,6.9c-1.6-0.8-3.2-1.5-4.9-2.1
	c-0.8-5.3-1.4-9-1.6-9.8c0.9-0.7,1.1-2,0.4-2.9c-0.7-0.9-2-1.1-2.9-0.4c-0.9,0.7-1.1,2-0.4,2.9c0.1,0.1,0.2,0.3,0.4,0.4
	c-0.1,0.6-0.7,3.8-1.4,8.4c-4.2-0.7-8.6-0.7-12.8,0c-0.7-4.7-1.3-7.8-1.4-8.4c0.9-0.7,1.1-2,0.4-2.9c-0.7-0.9-2-1.1-2.9-0.4
	c-0.9,0.7-1.1,2-0.4,2.9c0.1,0.1,0.2,0.3,0.4,0.4c-0.2,0.8-0.8,4.5-1.6,9.8c-1.7,0.6-3.3,1.3-4.9,2.1c-0.6-3.8-1.1-6.4-1.2-6.9
	c0.9-0.7,1.1-2,0.4-2.9c-0.7-0.9-2-1.1-2.9-0.4s-1.1,2-0.4,2.9c0.1,0.1,0.2,0.3,0.4,0.4c-0.2,0.8-0.9,4.7-1.7,10.3l0,0
	c-5.4,3.9-9.6,9.2-12.3,15.3c-1.8-0.4-3.7,0.5-4.6,2.1c-1.7-0.4-3.5,0.6-3.9,2.3s0.6,3.5,2.3,3.9c0.3,0.1,0.5,0.1,0.8,0.1H6
	c-0.4,2.2-0.6,4.4-0.6,6.7c0,10.9,4.7,21.2,12.9,28.4v0h0C34.1,91.6,57.9,90,71.7,74.3c4-4.6,6.8-10.1,8.3-16h0.7c1.1,0,2-0.9,2-2
	C82.7,55.3,81.8,54.4,80.7,54.4L80.7,54.4z M65.6,24.4H63V9.1c0.1,0,0.2,0,0.3-0.1C63.5,10.6,64.6,16.6,65.6,24.4z M64,78.7
	c-0.2-0.7-0.8-1.2-1.6-1.2H59l1,5c-0.6,0.3-1.1,0.5-1.7,0.8l-1.6-8.2c-0.2-0.7-0.8-1.2-1.6-1.2h-3.5l2.2,11c-0.7,0.2-1.3,0.4-2,0.5
	c-0.2-1-0.6-3.4-1.5-7.5v-0.2h0l0,0c-1-4.9-4.7-10.6-6.2-12.8c3.5,1.3,15.2,7,23.2,11.1v1.6c-1,0.8-2,1.6-3.1,2.4L64,78.7z
	 M63.7,80.4c-1,0.6-2,1.2-3,1.8l-0.8-4h2.6c0.4,0,0.8,0.2,0.9,0.6L63.7,80.4z M52.5,74.7h2.6c0.4,0,0.8,0.2,0.9,0.6l0.5,2.4h-3.4
	L52.5,74.7z M56.6,78.4l1,5.2c-1,0.4-2,0.8-3.1,1.1l-1.3-6.3H56.6z M47.4,83.6c-1.3-0.8-2.7-1.1-4.2-1.1c-1.5-0.1-3,0.3-4.2,1.1
	l-0.4,0.3l0.2,0.2v2.1c-1.2-0.1-2.3-0.3-3.4-0.6c0.2-1,0.6-3.2,1.4-7.2h13c0.8,3.9,1.3,6.2,1.4,7.2c-1.2,0.3-2.4,0.5-3.7,0.6V84
	l0.1-0.2L47.4,83.6z M29.9,78.4h3.4L32,84.8c-1.1-0.3-2.1-0.7-3.1-1.1L29.9,78.4z M33.4,77.7H30l0.5-2.4c0.1-0.4,0.5-0.7,0.9-0.6H34
	L33.4,77.7z M34.8,74h-3.5c-0.8,0-1.4,0.5-1.6,1.2l-0.5,2.5h0v0l-1.1,5.6c-0.6-0.3-1.1-0.5-1.7-0.8l1-5h-3.5c-0.8,0-1.4,0.5-1.6,1.2
	L22.2,80c-1.1-0.8-2.2-1.6-3.2-2.5V76c8.1-4,19.9-9.8,23.3-11.1c-1.5,2.2-5.1,8-6.2,12.8l0,0h0V78c-0.9,4.1-1.3,6.5-1.5,7.5
	c-0.7-0.2-1.3-0.3-1.9-0.5L34.8,74z M25.9,82.2c-1-0.6-2-1.1-3-1.8l0.3-1.5c0.1-0.4,0.5-0.7,0.9-0.6h2.6L25.9,82.2z M20.8,25.7
	c0-0.2,0-0.4,0.1-0.5h6.1c0.7,5.8,1.4,12.5,1.6,19.3c-4.1,2-7.9,3.9-9.5,4.7C19.2,41.2,19.8,33.4,20.8,25.7z M31,20.7
	c0-0.2,0-0.4,0.1-0.5h6.1c0.7,5.8,1.4,12.6,1.6,19.3c-2.7,1.2-6.1,2.9-9.5,4.5C29.5,36.2,30.1,28.4,31,20.7z M49.3,20.2h6.1
	c0,0.2,0,0.4,0.1,0.5c1,7.7,1.5,15.5,1.7,23.3c-3.3-1.6-6.8-3.3-9.5-4.5C47.9,32.7,48.6,26,49.3,20.2z M67.4,50.8v24.4
	c-1.6-0.8-5.4-2.7-9.6-4.7V47.2c0-0.7,0-1.4,0.1-2.1c3.3,1.6,6.6,3.2,9.5,4.7C67.4,50.2,67.4,50.5,67.4,50.8z M57.1,44.8
	c0,0.3,0,0.7,0,1v1.4c0,1.2,0,2.4,0,3.6v19.3c-3.4-1.6-6.9-3.3-9.6-4.5V45.9c0-1.9,0-3.7,0.1-5.6C50.2,41.4,53.6,43.1,57.1,44.8z
	 M37.9,74.7h10.8c0.4,1,0.7,2,1,3.1H36.9C37.1,76.7,37.5,75.7,37.9,74.7z M38.1,74c1.4-3.2,3.1-6.3,5.1-9.2c2,2.9,3.7,6,5.1,9.2
	H38.1z M43.2,63.9L43.2,63.9c-1.2,0.3-2.4,0.8-3.6,1.4V53.9c1.1-0.6,2.3-1.1,3.6-1.4c1.2,0.4,2.4,0.8,3.6,1.4v11.4
	C45.7,64.7,44.5,64.2,43.2,63.9z M39.7,50.3c1.1-0.6,2.3-1.1,3.6-1.4c1.2,0.4,2.4,0.8,3.6,1.4v2.8c-2.6-1.2-3.3-1.4-3.6-1.4
	c-0.3,0-0.9,0.2-3.6,1.4L39.7,50.3z M46.8,45.9v3.6c-2.6-1.2-3.3-1.4-3.6-1.4c-0.2,0-0.5,0-3.6,1.4v-3.7c0-2,0-3.9-0.1-5.9
	c1.2-0.6,2.4-1.1,3.7-1.5c1.3,0.4,2.5,0.9,3.7,1.5C46.8,41.9,46.8,43.9,46.8,45.9L46.8,45.9z M39,45.9v19.8l0.7-0.4
	c-2.7,1.2-6.6,3-10.3,4.8V50.8c0-1.2,0-2.4,0-3.6v-1.4c0-0.3,0-0.7,0-1c3.5-1.7,6.9-3.3,9.5-4.5C38.9,42.1,39,44,39,45.9L39,45.9z
	 M19.1,50.8c0-0.3,0-0.6,0-0.9c2.9-1.4,6.2-3.1,9.5-4.7c0,0.7,0,1.4,0.1,2.1v23.2c-4.2,2-8,3.9-9.6,4.7V50.8z M57.9,44.4
	c0.3-6.8,0.9-13.5,1.6-19.3h6.1c0,0.2,0,0.4,0.1,0.5c1,7.8,1.5,15.6,1.7,23.4C65.8,48.3,62.1,46.4,57.9,44.4L57.9,44.4z M62.6,5.7
	c0.8,0,1.4,0.6,1.4,1.4c0,0.8-0.6,1.4-1.4,1.4s-1.4-0.6-1.4-1.4c0,0,0,0,0,0C61.2,6.3,61.8,5.7,62.6,5.7L62.6,5.7z M62.2,9.1v15.3
	h-2.6c1-7.9,2.1-13.9,2.3-15.4C62.1,9.1,62.1,9.1,62.2,9.1L62.2,9.1z M60,16.4c-0.8,5.4-1.8,13-2.4,21.2c-0.3-5.2-0.7-10.9-1.5-16.9
	c-0.3-2.2-0.5-4.3-0.8-6.3C56.9,14.9,58.5,15.6,60,16.4z M55.3,19.5h-2.6V4.2c0.1,0,0.2,0,0.3-0.1C53.2,5.6,54.3,11.6,55.3,19.5
	L55.3,19.5z M52.3,0.7c0.8,0,1.4,0.6,1.4,1.4c0,0.8-0.6,1.4-1.4,1.4c-0.8,0-1.4-0.6-1.4-1.4C50.9,1.3,51.6,0.7,52.3,0.7z M52,4.2
	v15.3h-2.6c1-7.9,2.1-13.9,2.3-15.4C51.8,4.1,51.9,4.2,52,4.2L52,4.2z M49.5,12.9c-1.3,8.7-2.2,17.5-2.6,26.3
	c-1.2-0.6-2.4-1.1-3.7-1.4h0c-1.3,0.4-2.5,0.8-3.7,1.4c-0.4-8.8-1.3-17.6-2.6-26.3C41.1,12.2,45.4,12.2,49.5,12.9L49.5,12.9z
	 M37.1,19.5h-2.6V4.2c0.1,0,0.2,0,0.3-0.1C35.1,5.5,36.1,11.5,37.1,19.5z M34.1,0.7c0.8,0,1.4,0.6,1.4,1.4c0,0.8-0.6,1.4-1.4,1.4
	c-0.8,0-1.4-0.6-1.4-1.4C32.8,1.3,33.4,0.7,34.1,0.7z M33.8,4.2v15.3h-2.6c1-7.8,2-13.8,2.3-15.4C33.6,4.1,33.7,4.2,33.8,4.2z
	 M31.1,14.4c-0.3,1.9-0.6,4-0.8,6.3c-0.7,6-1.2,11.7-1.5,16.9c-0.6-8.1-1.6-15.8-2.4-21.2C28,15.6,29.5,14.9,31.1,14.4L31.1,14.4z
	 M26.8,24.4h-2.6V9.1c0.1,0,0.2,0,0.3-0.1C24.8,10.5,25.8,16.5,26.8,24.4z M23.9,5.7c0.8,0,1.4,0.6,1.4,1.4c0,0.8-0.6,1.4-1.4,1.4
	c-0.8,0-1.4-0.6-1.4-1.4C22.5,6.3,23.1,5.7,23.9,5.7z M23.5,9.1v15.3h-2.6c1-7.8,2-13.8,2.3-15.4C23.3,9.1,23.4,9.1,23.5,9.1z
	 M0.7,39.5c0-1.4,1.1-2.5,2.5-2.5c0.3,0,0.6,0.1,0.9,0.1l0.3,0.1l0.1-0.3c0.8-1.8,2.9-2.6,4.6-1.8c1,0.4,1.7,1.3,2,2.4l0.1,0.4
	l0.4-0.2c0.3-0.1,0.5-0.2,0.8-0.2c1.2,0,2.2,1,2.2,2.2s-1,2.2-2.2,2.2c0,0,0,0,0,0H3.2C1.8,42,0.7,40.9,0.7,39.5z M6.2,49.4
	c0-2.2,0.2-4.5,0.6-6.7h5.7c1.6,0,2.9-1.3,2.9-2.9c0-1.6-1.3-2.9-2.9-2.9c-0.2,0-0.5,0-0.7,0.1c-0.4-1.2-1.3-2.1-2.4-2.6
	c2.5-5.7,6.5-10.7,11.5-14.5c-0.2,1.8-0.5,3.6-0.7,5.7c-1.1,8.4-1.6,16.8-1.7,25.2v26.1C10.6,69.9,6.2,59.9,6.2,49.4z M39.5,86.3
	v-2.2c1.1-0.6,2.4-0.9,3.7-0.8c1.3,0,2.5,0.2,3.7,0.8v2.2c-1.2,0.1-2.4,0.2-3.6,0.2C42,86.5,40.7,86.4,39.5,86.3z M68.1,77V50.8
	c-0.1-8.4-0.6-16.8-1.7-25.2c-0.2-2-0.5-3.9-0.7-5.7c10.6,8,16,21,14.3,34.1c-0.9-1.1-2.5-1.2-3.6-0.3c-0.3,0.3-0.6,0.6-0.7,1
	c-1-0.2-1.9,0.5-2.1,1.5c-0.2,1,0.5,1.9,1.5,2.1c0.1,0,0.2,0,0.3,0h3.8C77.5,65.5,73.6,72,68.1,77z M80.7,57.7h-5.3
	c-0.6,0-1.1-0.5-1.1-1.1s0.5-1.1,1.1-1.1c0.1,0,0.3,0,0.4,0.1l0.4,0.2l0.1-0.4c0.2-1,1.2-1.6,2.2-1.4c0.6,0.1,1,0.5,1.3,1l0.1,0.3
	l0.3-0.1c0.1-0.1,0.3-0.1,0.4-0.1c0.7,0,1.3,0.6,1.3,1.3C81.9,57.1,81.4,57.7,80.7,57.7C80.7,57.7,80.7,57.7,80.7,57.7z"/>
</svg>
