<?xml version="1.0" encoding="utf-8"?>
<!-- Generator: Adobe Illustrator 24.2.0, SVG Export Plug-In . SVG Version: 6.00 Build 0)  -->
<svg version="1.1" id="Capa_1" xmlns="http://www.w3.org/2000/svg" xmlns:xlink="http://www.w3.org/1999/xlink" x="0px" y="0px"
	 viewBox="0 0 750 500" style="enable-background:new 0 0 750 500;" xml:space="preserve">
<style type="text/css">
	.st0{fill:none;}
	.st1{fill:#D8DFFD;}
	.st2{fill:#D8DFFD;stroke:url(#SVGID_2_);stroke-width:1.0383;stroke-miterlimit:10;}
	.st3{clip-path:url(#SVGID_5_);}
	.st4{fill:#A9B7F2;}
	.st5{fill:#E9EDFD;}
	.st6{fill:#D8DFFD;stroke:url(#SVGID_6_);stroke-width:0.9609;stroke-miterlimit:10;}
	.st7{fill:#C9D2FC;}
	.st8{fill:#253A6A;}
	.st9{fill:#B8B8C2;}
	.st10{clip-path:url(#SVGID_8_);fill:#FFFFFF;}
	.st11{clip-path:url(#SVGID_10_);fill:#FFFFFF;}
	.st12{fill:#EAA947;}
	.st13{clip-path:url(#SVGID_12_);fill:#F0C98C;}
	.st14{fill:#CF8127;}
	.st15{clip-path:url(#SVGID_14_);fill:#5E5E5E;}
	.st16{fill:none;stroke:#000000;stroke-width:0.786;stroke-linecap:round;stroke-linejoin:round;stroke-miterlimit:10;}
	.st17{fill:#5E5E5E;}
	.st18{fill:#FFFFFF;}
	.st19{fill:none;stroke:#101010;stroke-width:2.8685;stroke-miterlimit:10;}
	.st20{fill:#101010;}
	.st21{fill:#3746F9;}
	.st22{fill:none;stroke:#171717;stroke-width:0.6129;stroke-linecap:round;stroke-linejoin:round;stroke-miterlimit:10;}
	.st23{fill:none;stroke:#000000;stroke-width:0.9785;stroke-linecap:round;stroke-linejoin:round;stroke-miterlimit:10;}
	.st24{fill:#A68969;}
	.st25{fill:#1F1E47;}
	.st26{fill:#8E755B;}
	.st27{fill:#AFB7C2;}
	.st28{fill:#C6CDD4;}
	.st29{fill:#272CC9;}
</style>
<pattern  y="500" width="627.5" height="333.1" patternUnits="userSpaceOnUse" id="SVGID_1_" viewBox="0 -333.2 627.5 333.1" style="overflow:visible;">
	<g>
		<rect y="-333.2" class="st0" width="627.5" height="333.1"/>
		<g>
			<rect x="0" y="-333.2" class="st0" width="627.5" height="333.1"/>
			<path class="st1" d="M530.3-331.6c0,0,99.4,44.2,97.1,133.4C625.1-109,530.9-67.6,467-122.6c-63.9-55.1-105.3-8.9-138.5,37.6
				c-33.1,46.5-107,105.2-204,78.1C23-35.4-8.3-138.2,1.8-206.9C9-256.2,35.4-298,71.4-330.1c1.2-1.1,2.4-2.1,3.6-3.1L530.3-331.6z"
				/>
		</g>
	</g>
</pattern>
<pattern  y="500" width="627.5" height="333.1" patternUnits="userSpaceOnUse" id="SVGID_4_" viewBox="0 -333.2 627.5 333.1" style="overflow:visible;">
	<g>
		<rect y="-333.2" class="st0" width="627.5" height="333.1"/>
		<g>
			<rect x="0" y="-333.2" class="st0" width="627.5" height="333.1"/>
			<path class="st1" d="M530.3-331.6c0,0,99.4,44.2,97.1,133.4C625.1-109,530.9-67.6,467-122.6c-63.9-55.1-105.3-8.9-138.5,37.6
				c-33.1,46.5-107,105.2-204,78.1C23-35.4-8.3-138.2,1.8-206.9C9-256.2,35.4-298,71.4-330.1c1.2-1.1,2.4-2.1,3.6-3.1L530.3-331.6z"
				/>
		</g>
	</g>
</pattern>
<g id="OBJECTS">
	<g>
		<g>
			<pattern  id="SVGID_2_" xlink:href="#SVGID_1_" patternTransform="matrix(1.0383 0 0 -1.0383 488.1112 -15808.1592)">
			</pattern>
			<path class="st2" d="M600.1,434.6c0,0,103.2-45.9,100.8-138.5s-100.2-135.6-166.6-78.5c-66.4,57.2-109.4,9.2-143.7-39.1
				c-34.4-48.3-111.1-109.3-211.8-81.1C73.3,127,40.9,233.8,51.3,305.1c7.5,51.2,34.9,94.6,72.3,127.9c1.2,1.1,2.5,2.2,3.7,3.2
				L600.1,434.6z"/>
			<g>
				<g>
					<defs>
						<path id="SVGID_3_" d="M600.1,434.6c0,0,103.2-45.9,100.8-138.5s-100.2-135.6-166.6-78.5c-66.4,57.2-109.4,9.2-143.7-39.1
							c-34.4-48.3-111.1-109.3-211.8-81.1C73.3,127,40.9,233.8,51.3,305.1c7.5,51.2,34.9,94.6,72.3,127.9c1.2,1.1,2.5,2.2,3.7,3.2
							L600.1,434.6z"/>
					</defs>
					<clipPath id="SVGID_5_">
						<use xlink:href="#SVGID_3_"  style="overflow:visible;"/>
					</clipPath>
					<g class="st3">
						<g>
							<rect x="79.5" y="312.4" class="st4" width="51.2" height="65.9"/>
							<rect x="394.3" y="278.3" class="st4" width="89.3" height="89.3"/>
							<rect x="195.5" y="289.5" class="st4" width="51.2" height="65.9"/>
							<rect x="292.4" y="325.2" class="st4" width="51.2" height="65.9"/>
							<rect x="28.3" y="351.3" class="st4" width="669.9" height="86.5"/>
							<rect x="28.3" y="285.4" class="st4" width="51.2" height="65.9"/>
						</g>
						<g>
							
								<ellipse transform="matrix(0.2331 -0.9725 0.9725 0.2331 -14.7615 431.6753)" class="st5" cx="266.3" cy="225.2" rx="33.4" ry="33.4"/>
							<pattern  id="SVGID_6_" xlink:href="#SVGID_4_" patternTransform="matrix(0.9609 0 0 -0.9609 -122.1062 -14899.0684)">
							</pattern>
							<circle class="st6" cx="266.3" cy="209.9" r="7.7"/>
							<rect x="227.3" y="222.5" class="st7" width="78" height="215.3"/>
							<g>
								<g>
									<rect x="237.9" y="237.9" class="st4" width="15.5" height="30.5"/>
									<rect x="276.9" y="237.9" class="st4" width="15.5" height="30.5"/>
								</g>
								<g>
									<rect x="237.9" y="284.4" class="st4" width="15.5" height="30.5"/>
									<rect x="276.9" y="284.4" class="st4" width="15.5" height="30.5"/>
								</g>
								<g>
									<rect x="237.9" y="330.9" class="st4" width="15.5" height="30.5"/>
									<rect x="276.9" y="330.9" class="st4" width="15.5" height="30.5"/>
								</g>
								<g>
									<rect x="237.9" y="377.5" class="st4" width="15.5" height="30.5"/>
									<rect x="276.9" y="377.5" class="st4" width="15.5" height="30.5"/>
								</g>
							</g>
						</g>
						<g>
							<rect x="323.7" y="172.7" class="st7" width="84.8" height="265.1"/>
							<g>
								<g>
									<rect x="332" y="191.6" class="st4" width="11.6" height="11.6"/>
									<rect x="360.3" y="191.6" class="st4" width="11.6" height="11.6"/>
									<rect x="388.6" y="191.6" class="st4" width="11.6" height="11.6"/>
								</g>
								<g>
									<rect x="332" y="212" class="st4" width="11.6" height="11.6"/>
									<rect x="360.3" y="212" class="st4" width="11.6" height="11.6"/>
									<rect x="388.6" y="212" class="st4" width="11.6" height="11.6"/>
								</g>
								<g>
									<rect x="332" y="232.4" class="st4" width="11.6" height="11.6"/>
									<rect x="360.3" y="232.4" class="st4" width="11.6" height="11.6"/>
									<rect x="388.6" y="232.4" class="st4" width="11.6" height="11.6"/>
								</g>
								<g>
									<rect x="332" y="252.9" class="st4" width="11.6" height="11.6"/>
									<rect x="360.3" y="252.9" class="st4" width="11.6" height="11.6"/>
									<rect x="388.6" y="252.9" class="st4" width="11.6" height="11.6"/>
								</g>
								<g>
									<rect x="332" y="273.3" class="st4" width="11.6" height="11.6"/>
									<rect x="360.3" y="273.3" class="st4" width="11.6" height="11.6"/>
									<rect x="388.6" y="273.3" class="st4" width="11.6" height="11.6"/>
								</g>
								<g>
									<rect x="332" y="293.7" class="st4" width="11.6" height="11.6"/>
									<rect x="360.3" y="293.7" class="st4" width="11.6" height="11.6"/>
									<rect x="388.6" y="293.7" class="st4" width="11.6" height="11.6"/>
								</g>
								<g>
									<rect x="332" y="314.2" class="st4" width="11.6" height="11.6"/>
									<rect x="360.3" y="314.2" class="st4" width="11.6" height="11.6"/>
									<rect x="388.6" y="314.2" class="st4" width="11.6" height="11.6"/>
								</g>
								<g>
									<rect x="332" y="334.6" class="st4" width="11.6" height="11.6"/>
									<rect x="360.3" y="334.6" class="st4" width="11.6" height="11.6"/>
									<rect x="388.6" y="334.6" class="st4" width="11.6" height="11.6"/>
								</g>
								<g>
									<rect x="332" y="355" class="st4" width="11.6" height="11.6"/>
									<rect x="360.3" y="355" class="st4" width="11.6" height="11.6"/>
									<rect x="388.6" y="355" class="st4" width="11.6" height="11.6"/>
								</g>
								<g>
									<rect x="332" y="375.5" class="st4" width="11.6" height="11.6"/>
									<rect x="360.3" y="375.5" class="st4" width="11.6" height="11.6"/>
									<rect x="388.6" y="375.5" class="st4" width="11.6" height="11.6"/>
								</g>
								<g>
									<rect x="332" y="395.9" class="st4" width="11.6" height="11.6"/>
									<rect x="360.3" y="395.9" class="st4" width="11.6" height="11.6"/>
									<rect x="388.6" y="395.9" class="st4" width="11.6" height="11.6"/>
								</g>
							</g>
						</g>
						<g>
							<rect x="594.1" y="245.9" class="st7" width="84.8" height="265.1"/>
							<g>
								<g>
									<rect x="602.5" y="264.8" class="st4" width="11.6" height="11.6"/>
									<rect x="630.7" y="264.8" class="st4" width="11.6" height="11.6"/>
									<rect x="659" y="264.8" class="st4" width="11.6" height="11.6"/>
								</g>
								<g>
									<rect x="602.5" y="285.2" class="st4" width="11.6" height="11.6"/>
									<rect x="630.7" y="285.2" class="st4" width="11.6" height="11.6"/>
									<rect x="659" y="285.2" class="st4" width="11.6" height="11.6"/>
								</g>
								<g>
									<rect x="602.5" y="305.7" class="st4" width="11.6" height="11.6"/>
									<rect x="630.7" y="305.7" class="st4" width="11.6" height="11.6"/>
									<rect x="659" y="305.7" class="st4" width="11.6" height="11.6"/>
								</g>
								<g>
									<rect x="602.5" y="326.1" class="st4" width="11.6" height="11.6"/>
									<rect x="630.7" y="326.1" class="st4" width="11.6" height="11.6"/>
									<rect x="659" y="326.1" class="st4" width="11.6" height="11.6"/>
								</g>
								<g>
									<rect x="602.5" y="346.5" class="st4" width="11.6" height="11.6"/>
									<rect x="630.7" y="346.5" class="st4" width="11.6" height="11.6"/>
									<rect x="659" y="346.5" class="st4" width="11.6" height="11.6"/>
								</g>
								<g>
									<rect x="602.5" y="367" class="st4" width="11.6" height="11.6"/>
									<rect x="630.7" y="367" class="st4" width="11.6" height="11.6"/>
									<rect x="659" y="367" class="st4" width="11.6" height="11.6"/>
								</g>
								<g>
									<rect x="602.5" y="387.4" class="st4" width="11.6" height="11.6"/>
									<rect x="630.7" y="387.4" class="st4" width="11.6" height="11.6"/>
									<rect x="659" y="387.4" class="st4" width="11.6" height="11.6"/>
								</g>
								<g>
									<rect x="602.5" y="407.8" class="st4" width="11.6" height="11.6"/>
									<rect x="630.7" y="407.8" class="st4" width="11.6" height="11.6"/>
									<rect x="659" y="407.8" class="st4" width="11.6" height="11.6"/>
								</g>
								<g>
									<rect x="602.5" y="428.2" class="st4" width="11.6" height="11.6"/>
									<rect x="630.7" y="428.2" class="st4" width="11.6" height="11.6"/>
									<rect x="659" y="428.2" class="st4" width="11.6" height="11.6"/>
								</g>
								<g>
									<rect x="602.5" y="448.7" class="st4" width="11.6" height="11.6"/>
									<rect x="630.7" y="448.7" class="st4" width="11.6" height="11.6"/>
									<rect x="659" y="448.7" class="st4" width="11.6" height="11.6"/>
								</g>
								<g>
									<rect x="602.5" y="469.1" class="st4" width="11.6" height="11.6"/>
									<rect x="630.7" y="469.1" class="st4" width="11.6" height="11.6"/>
									<rect x="659" y="469.1" class="st4" width="11.6" height="11.6"/>
								</g>
							</g>
						</g>
						<g>
							<g>
								<rect x="103.8" y="172.7" class="st7" width="104.9" height="265.1"/>
							</g>
							<g>
								<rect x="114.8" y="215.3" class="st4" width="7.1" height="137.1"/>
								<rect x="133.8" y="215.3" class="st4" width="7.1" height="137.1"/>
								<rect x="152.7" y="215.3" class="st4" width="7.1" height="137.1"/>
								<rect x="171.7" y="215.3" class="st4" width="7.1" height="137.1"/>
								<rect x="190.6" y="215.3" class="st4" width="7.1" height="137.1"/>
							</g>
							<rect x="103.8" y="187.4" class="st5" width="104.9" height="14.7"/>
						</g>
					</g>
				</g>
			</g>
		</g>
	</g>
	<g>
		<g>
			<path d="M402.6,352.4h-18.1c-17.8,0-32.2,18.7-32.2,41.7s14.4,41.7,32.2,41.7h18.1c17.8,0,32.2-18.7,32.2-41.7
				S420.4,352.4,402.6,352.4z"/>
			<path d="M628.6,352.4h-18.1c-17.8,0-32.2,18.7-32.2,41.7s14.4,41.7,32.2,41.7h18.1c17.8,0,32.2-18.7,32.2-41.7
				S646.4,352.4,628.6,352.4z"/>
			<g>
				<rect x="409" y="342.3" width="133.6" height="59.7"/>
				<g>
					<ellipse cx="482" cy="395" rx="31.5" ry="40.7"/>
					<polygon points="464.3,435.7 482,435.7 500.1,417.6 482,354.2 464.3,354.2 					"/>
					<ellipse class="st8" cx="464.3" cy="395" rx="31.5" ry="40.7"/>
					<g>
						<g>
							<ellipse id="XMLID_24_" class="st9" cx="462.1" cy="394.1" rx="15.2" ry="20.6"/>
						</g>
						<g>
							<defs>
								<ellipse id="SVGID_7_" cx="462.1" cy="394.1" rx="15.2" ry="20.6"/>
							</defs>
							<clipPath id="SVGID_8_">
								<use xlink:href="#SVGID_7_"  style="overflow:visible;"/>
							</clipPath>
							<ellipse class="st10" cx="469.2" cy="394.1" rx="15.2" ry="20.6"/>
						</g>
					</g>
				</g>
			</g>
			<g>
				<rect x="183" y="342.3" width="133.6" height="59.7"/>
				<g>
					<ellipse cx="256" cy="395" rx="31.5" ry="40.7"/>
					<polygon points="238.3,435.7 256,435.7 274.1,417.6 256,354.2 238.3,354.2 					"/>
					<ellipse class="st8" cx="238.3" cy="395" rx="31.5" ry="40.7"/>
					<g>
						<g>
							<ellipse id="XMLID_25_" class="st9" cx="236.1" cy="394.1" rx="15.2" ry="20.6"/>
						</g>
						<g>
							<defs>
								<ellipse id="SVGID_9_" cx="236.1" cy="394.1" rx="15.2" ry="20.6"/>
							</defs>
							<clipPath id="SVGID_10_">
								<use xlink:href="#SVGID_9_"  style="overflow:visible;"/>
							</clipPath>
							<ellipse class="st11" cx="243.2" cy="394.1" rx="15.2" ry="20.6"/>
						</g>
					</g>
				</g>
			</g>
		</g>
		<g>
			<g>
				<g>
					<path id="XMLID_26_" class="st12" d="M161.8,402.1v-70.7c0-10.1,7.4-18.7,17.4-20.1c8.8-1.2,20-2.3,31.6-2.1
						c0,0,67.2-41.3,91.8-41.3l154.3-0.8c20.7-0.3,41.1,4.4,59.6,13.6l68.7,34.2l91.4,20c0,0,18.9,5.1,23,17.4s2.7,25.8,2.7,25.8
						H501.5c0,0-9-28.4-38-28.4c-28.9,0-36.8,34.9-35,52.4H277c0,0,0.6-51.8-38.6-50s-36.2,50-36.2,50L161.8,402.1"/>
				</g>
				<g>
					<defs>
						<path id="SVGID_11_" d="M161.8,402.1v-70.7c0-10.1,7.4-18.7,17.4-20.1c8.8-1.2,20-2.3,31.6-2.1c0,0,67.2-41.3,91.8-41.3
							l154.3-0.8c20.7-0.3,41.1,4.4,59.6,13.6l68.7,34.2l91.4,20c0,0,18.9,5.1,23,17.4s2.7,25.8,2.7,25.8H501.5c0,0-9-28.4-38-28.4
							c-28.9,0-36.8,34.9-35,52.4H277c0,0,0.6-51.8-38.6-50s-36.2,50-36.2,50L161.8,402.1"/>
					</defs>
					<clipPath id="SVGID_12_">
						<use xlink:href="#SVGID_11_"  style="overflow:visible;"/>
					</clipPath>
					<polyline class="st13" points="425.3,298.9 532.2,355.5 739.4,355.3 557.4,267.1 524.6,307.6 425.3,298.9 					"/>
				</g>
			</g>
			<g>
				<path class="st14" d="M163.3,378.1c-5.3,0-9.6,4.3-9.6,9.6v4.8c0,5.3,4.3,9.6,9.6,9.6h39c0,0-0.2-13,3.3-23.9h-42.3V378.1z"/>
			</g>
			<g>
				<g>
					<path d="M397.8,247.6h-59.9c-5,0-9,4-9,9v11.3h77.9v-11.3C406.8,251.7,402.8,247.6,397.8,247.6z"/>
					<path class="st14" d="M409.5,247.6h-59.9c-5,0-9,4-9,9v11.3h77.9v-11.3C418.5,251.7,414.4,247.6,409.5,247.6z"/>
				</g>
				<g>
					<path d="M362,253.9h-3.7v-1.8h9.5v1.8h-3.7v9.4H362V253.9z"/>
					<path d="M377.3,260.8h-5.6l-1.1,2.6h-2.1l5-11.2h2l5.1,11.2h-2.2L377.3,260.8z M376.6,259.1l-2.1-4.9l-2.1,4.9H376.6z"/>
					<path d="M389.7,263.4l-3-4.3l-3,4.3h-2.4l4.2-5.7l-3.9-5.5h2.4l2.9,4l2.8-4h2.3l-3.9,5.4l4.2,5.8L389.7,263.4L389.7,263.4z"/>
					<path d="M394.5,252.2h2.1v11.2h-2.1V252.2z"/>
				</g>
			</g>
			<g>
				<g>
					<g>
						<g>
							<path id="XMLID_3_" d="M428,312l-61-34.3c-5.2-2.9-11-4.4-17-4.4h-36.3c-9.4,0-18.6,2.7-26.5,7.7l-57.9,32.9
								c-1.7,0.9-1,3.5,0.9,3.5h196.4C429.5,317.3,430.5,313.5,428,312z"/>
						</g>
						<g>
							<defs>
								<path id="SVGID_13_" d="M428,312l-61-34.3c-5.2-2.9-11-4.4-17-4.4h-36.3c-9.4,0-18.6,2.7-26.5,7.7l-57.9,32.9
									c-1.7,0.9-1,3.5,0.9,3.5h196.4C429.5,317.3,430.5,313.5,428,312z"/>
							</defs>
							<clipPath id="SVGID_14_">
								<use xlink:href="#SVGID_13_"  style="overflow:visible;"/>
							</clipPath>
							<polygon class="st15" points="230.3,271.3 355.4,342.3 405.8,342.3 280.7,271.3 							"/>
						</g>
					</g>
					<path class="st16" d="M228.9,315.3v24.6c0,0,53.2-10.7,58.6,50.2H409c0,0-3.2-59.6,19.2-74.1"/>
					<path class="st16" d="M328,317.3c0,0-12.7,5.6-6.5,72.8"/>
					<path d="M347.6,329.2h-12.2c-1.3,0-2.4-1.1-2.4-2.4v-1.1c0-1.3,1.1-2.4,2.4-2.4h12.2c1.3,0,2.4,1.1,2.4,2.4v1.1
						C350,328.1,348.9,329.2,347.6,329.2z"/>
					<path d="M255.9,329.2h-12.2c-1.3,0-2.4-1.1-2.4-2.4v-1.1c0-1.3,1.1-2.4,2.4-2.4h12.2c1.3,0,2.4,1.1,2.4,2.4v1.1
						C258.3,328.1,257.2,329.2,255.9,329.2z"/>
				</g>
				<g>
					<path d="M390.2,280.2l69.8,37h118.6l-79.8-39c-6.7-3.3-14-5-21.5-5h-85.4C388.1,273.3,386.8,278.4,390.2,280.2z"/>
					<line class="st16" x1="477.3" y1="323.2" x2="587.1" y2="323.2"/>
					<polygon class="st17" points="412.8,273.3 490.2,317.3 516.1,317.3 438.6,273.3 					"/>
					<polygon class="st17" points="461,273.3 538.5,317.3 546.9,317.3 469.5,273.3 					"/>
				</g>
			</g>
			<g>
				<path class="st14" d="M690.4,402.1H511.1c-5.3,0-9.6-4.3-9.6-9.6v-14.4h200.6l-0.2,12.3C702,396.9,696.8,402.1,690.4,402.1z"/>
				<rect x="611.3" y="375.2" class="st18" width="32.6" height="9.8"/>
				<line class="st16" x1="572.7" y1="355.5" x2="668.6" y2="355.5"/>
				<line class="st16" x1="590.2" y1="362.8" x2="653.2" y2="362.8"/>
				<line class="st16" x1="590.2" y1="370.1" x2="653.2" y2="370.1"/>
				<path class="st18" d="M576.7,371.2h-41.9c-3.5,0-6.4-2.9-6.4-6.4v-6c0-3.5,2.9-6.4,6.4-6.4h41.9c3.5,0,6.4,2.9,6.4,6.4v6
					C583.1,368.4,580.2,371.2,576.7,371.2z"/>
				<g>
					<path class="st18" d="M699.5,352.4h-31.8c-3.5,0-6.4,2.9-6.4,6.4v6c0,3.5,2.9,6.4,6.4,6.4h34.6
						C702.6,358.6,699.9,353.2,699.5,352.4z"/>
				</g>
				<line class="st16" x1="528.4" y1="364.8" x2="583.1" y2="364.8"/>
				<line class="st16" x1="661.3" y1="364.8" x2="702.1" y2="364.8"/>
			</g>
		</g>
	</g>
	<g>
		<g>
			<g>
				<g>
					<path class="st19" d="M72.1,337.4H39.8v-69.1c0-6.9,5.6-12.5,12.5-12.5h7.2c6.9,0,12.5,5.6,12.5,12.5L72.1,337.4L72.1,337.4z"
						/>
					<g>
						<ellipse class="st20" cx="39.4" cy="428.4" rx="7.5" ry="7.5"/>
						<ellipse class="st20" cx="72.4" cy="428.3" rx="7.5" ry="7.5"/>
					</g>
				</g>
				<g>
					<path class="st21" d="M81.5,426.6H30.3c-7.3,0-13.2-5.9-13.2-13.2V327c0-7.3,5.9-13.2,13.2-13.2h51.2c7.3,0,13.2,5.9,13.2,13.2
						v86.4C94.8,420.7,88.9,426.6,81.5,426.6z"/>
					<g>
						<rect x="30.4" y="331.6" class="st22" width="2.8" height="78"/>
						<rect x="45.5" y="331.6" class="st22" width="2.8" height="78"/>
						<rect x="60.6" y="331.6" class="st22" width="2.8" height="78"/>
						<rect x="75.7" y="331.6" class="st22" width="2.8" height="78"/>
					</g>
				</g>
			</g>
		</g>
	</g>
	<line class="st23" x1="24.2" y1="435.8" x2="714.4" y2="435.8"/>
	<g>
		<g>
			<g id="Head_Front" transform="translate(88.813)">
				<g id="Head" transform="translate(58.487 33.584)">
					<path id="Head-2" class="st24" d="M18.1,166.8l6-28c-3.3-3.9-5.6-8.7-5.2-14.1c1.1-15.5,22.7-12.1,26.9-4.3s3.7,27.7-1.7,29.1
						c-2.2,0.6-6.8-0.8-11.5-3.6l2.9,20.9L18.1,166.8z"/>
				</g>
				<path id="hair" class="st25" d="M112,143.1c-0.3-1.3-1.3-2.3-2.6-2.7c-0.3-0.1-0.6-0.1-1-0.1c-0.1,0-0.2,0-0.2,0
					c0-0.1-0.1-0.2-0.1-0.3c-0.1-0.2-0.1-0.4-0.2-0.7c-0.3-0.7-0.7-1.4-1.3-1.9c-1-1-2.4-1.7-3.9-1.8c-0.8-0.1-1.6,0-2.3,0.3
					c-0.4,0.1-0.8,0.3-1.1,0.5c-0.1,0.1-0.5,0.3-0.6,0.3s-0.4-0.3-0.5-0.4c-1.2-0.9-2.8-1.4-4.3-1.3c-1.7,0-3.4,0.1-4.9,1.2
					c-0.3,0.2-0.6,0.5-0.9,0.7c-0.1,0.1-0.3,0.3-0.4,0.4c-0.1,0.1-0.2,0.2-0.2,0.3c-0.1,0.2-0.1,0.2-0.3,0.1
					c-0.7-0.4-1.5-0.6-2.3-0.5c-0.5,0.1-1,0.2-1.4,0.4c-0.2,0.1-0.5,0.3-0.7,0.3s-0.5-0.2-0.7-0.3c-0.9-0.3-1.9-0.4-2.8-0.3
					c-1,0.2-1.9,0.5-2.7,1.1c-0.4,0.2-0.7,0.6-1,0.9c-0.1,0.2-0.2,0.3-0.4,0.5c-0.1,0.1-0.2,0.2-0.3,0.3c-0.4-0.2-0.8-0.4-1.2-0.5
					c-0.5-0.1-1.1-0.1-1.6,0.1c-1,0.4-1.9,1-2.6,1.8c-0.4,0.4-0.7,0.8-1,1.3c-0.1,0.2-0.2,0.4-0.4,0.7c0,0.1-0.1,0.2-0.2,0.4
					c-0.1,0.1-0.1,0.1-0.3,0.2c-0.8,0.3-1.6,0.8-2.1,1.4c-0.6,0.7-1,1.5-1.1,2.4c0,0.1,0,0.2,0,0.3c0,0-0.2,0-0.3,0
					c-0.2,0-0.4,0.1-0.6,0.1c-0.4,0.1-0.8,0.2-1.1,0.4c-1.4,0.7-2.4,2-2.9,3.5c-0.5,1.6-0.5,3.3,0.1,4.8c0.1,0.2,0.2,0.5,0.4,0.7
					c0.1,0.1,0.1,0.1,0.1,0.3c-0.1,0.2-0.2,0.3-0.2,0.5c-0.2,0.5-0.4,1.1-0.5,1.6c-0.2,0.9-0.2,1.9-0.1,2.8c0.1,0.4,0.2,0.8,0.4,1.2
					c0.1,0.2,0.2,0.4,0.4,0.5c0.1,0.1,0.2,0.2,0.2,0.3c0.1,0,0.1,0.1,0.1,0.1c0.1,0.1,0.1,0,0.1,0.2c-0.1,0.3-0.2,0.5-0.3,0.8
					s-0.2,0.5-0.3,0.8c-0.2,0.5-0.3,1.1-0.4,1.6c-0.2,1.1-0.1,2.2,0.4,3.2c0.2,0.4,0.5,0.8,0.9,1.1c0.2,0.1,0.4,0.3,0.6,0.4
					c0.1,0.1,0.2,0.1,0.3,0.2c0,0.1,0,0.3,0,0.5c-0.2,1.1-0.2,2.2,0.1,3.3c0.3,1,0.9,1.8,1.8,2.4c1.7,1,3.8,1.1,5.6,0.2
					c0.5-0.2,0.9-0.5,1.2-0.9c1,1.3,2.9,1.2,4.3,0.9c1.7-0.5,3.2-1.7,3.9-3.3c1.1,1.3,3.4,0.9,4.2-0.5c0.2-0.4,0.3-0.7,0.4-1.1
					c0-0.2,0-0.4,0-0.6c0.1-0.3,0.2-0.5,0.3-0.8c0.2-0.5,0.3-1,0.3-1.5c0-0.3,0-0.6-0.1-0.8c0-0.2,0-0.5,0.1-0.7c-0.5,0-1,0-1.4-0.2
					s-0.8-0.4-1.1-0.8c-0.6-0.7-1.1-1.6-1.4-2.6c-0.6-2-0.4-4.5,1.7-5.6c1-0.5,3.8-0.5,4.9-0.3c1.2,0.3,2.5,2.9,2.6,3.1
					c0,0.2,0,0.3,0.2,0.4c0.3,0.2,0.8-0.2,1-0.4c0.4-0.3,0.7-0.8,0.9-1.2c0.5-1,1-2,1.3-3.1c0.2-0.8,0.4-1.7,0.7-2.5
					c0.3-0.8,0.8-1.5,1.5-2c0.8-0.4,1.7-0.8,2.6-1.1s1.7-0.7,2.4-1.3c0.2-0.1,0.3-0.3,0.4-0.5c0.1-0.1,0.2-0.4,0.3-0.5
					c0.2-0.1,0.6,0.2,0.7,0.3c1,0.6,1.8,1.4,2.4,2.4c0.6,0.9,1.2,1.8,1.6,2.8c0.3,0.8,0.5,1.7,1.1,2.4c0.2,0.3,2.1,0.4,2.7,0.2
					c0.6-0.3,1.1-0.7,1.5-1.3c0.2-0.4,0.3-0.9,0.2-1.3c-0.1-0.3-0.2-0.5-0.2-0.8c0-0.2-0.1-0.4-0.2-0.6c-0.2-0.4-0.5-0.6-1-0.8
					c0.4-0.4,0.8-0.9,1-1.4c0.3-0.6,0.5-1.2,0.5-1.8c0.1-0.5,0-1-0.3-1.4s-0.7-0.8-1.2-1c0.7-0.5,1.2-1.1,1.7-1.8
					C112,146.4,112.4,144.7,112,143.1z"/>
			</g>
			<g id="Body_Long_Sleeve_1" transform="translate(23.828 88.835)">
				<path id="Skin" class="st26" d="M72.9,225.5c-0.8-0.5-1.7-2.4,0.4-3.9c5.3-3.7,13-10.1,14.1-12.2c2.1-4.3,20.7-59.9,20.7-59.9
					l15.9,0.1c0,0-26.1,58.9-27.3,61.6c-1.7,4.2,1.9,10.5,3.4,13.9c-2.4,1.1-3.5-0.3-4.7-1.7c-1.3-1.5-2.7-2.9-5.9-1.4
					c-4.1,1.9-7.5,5-11.6,5C76.1,227.1,74.4,226.5,72.9,225.5z M198.2,143l28.7-3.9c5-2.9,10.3-5.1,15.8-6.5c1.4,0,3.5,0.5,0.3,3.1
					s-6.5,5.6-5.9,7.1c0.6,1.4,3.6,0.9,4.1,3.1c0.3,1.5-4.5,1.7-14.5,0.7l-23.3,9.2L198.2,143z"/>
				<path id="Clothes_Back" class="st27" d="M151.7,99.2l12.4,0.8c3.1,27.7,19.8,45.3,57.1,39.3l5,35.7
					c-34.9,4.5-65.6-9.5-71.9-47.3C152.8,117.9,151.5,107.7,151.7,99.2z"/>
				<path id="Clothes" class="st28" d="M89.6,202.3c8.6-46,26.9-81.6,54.7-106.8h1.2l0,0l18.9,4.3c0,32.4,10.3,53.1,15.6,77h-50.9
					c-0.7,8.2-1.2,16.7-1.4,25.4H89.6V202.3z"/>
				<path id="Shade" d="M139.5,176.9h-10.4c1.6-17.9,4.3-33.4,8.4-47.5c-0.6,9.4-0.7,17.9-0.6,25.3C137.2,164,138,171.5,139.5,176.9
					L139.5,176.9z"/>
			</g>
		</g>
		<g>
			<path id="Leg_1_" class="st26" d="M165,265.7l26.3,90.8l12.4,68.1h12.4l-12.4-158.9H165z"/>
			<path id="Leg-2_1_" class="st24" d="M153.2,265.7c1.8,47.2,1.1,72.9,0.7,77.2c-0.4,4.3-2.7,33-18.7,83.2h12.9
				c21.1-48.2,28.4-76.9,30.8-83.2c2.4-6.3,9.6-32,20-77.2H153.2z"/>
			<path id="Pant" class="st29" d="M164.4,265.7c6.9,31.2,18.7,81.1,35.5,149.6h18.2c1.3-70.3-4.4-116.5-14.3-149.6H164.4z"/>
			<path id="Pant-2" class="st21" d="M153.1,265.7c1.8,47.2-2.9,93.6-17.3,150.3h19.4c21.1-47.5,36.2-93.7,46.6-150.3H153.1z"/>
			<g id="Left_Shoe_1_" transform="translate(84 199)">
				<path id="Shoe_1_" class="st25" d="M49.4,236.4l0.7-10.9c0-0.4,0.3-0.6,0.7-0.7l15.1-1.4l25.9,9.6c0.7,0.3,1.1,1,0.9,1.7
					l-1.1,3.8H50.8L49.4,236.4z"/>
			</g>
			<g id="Right_Shoe_1_" transform="translate(178 199)">
				<path id="Shoe-2_1_" class="st25" d="M23,236.4l0.7-10.9c0-0.4,0.3-0.6,0.7-0.7l15.1-1.4l25.9,9.6c0.7,0.3,1.1,1,0.9,1.7
					l-1.1,3.8H24.4L23,236.4z"/>
			</g>
		</g>
	</g>
</g>
</svg>
