<?xml version="1.0" encoding="utf-8"?>
<!-- Generator: Adobe Illustrator 24.2.0, SVG Export Plug-In . SVG Version: 6.00 Build 0)  -->
<svg version="1.1" id="Capa_1" xmlns="http://www.w3.org/2000/svg" xmlns:xlink="http://www.w3.org/1999/xlink" x="0px" y="0px"
	 viewBox="0 0 75 75" style="enable-background:new 0 0 75 75;" xml:space="preserve">
<style type="text/css">
	.st0{fill:#4452CF;}
</style>
<path class="st0" d="M39.6,37.5L74.6,2.6c0.6-0.6,0.6-1.5,0-2.1c-0.6-0.6-1.5-0.6-2.1,0L37.5,35.4L2.6,0.4C2-0.1,1-0.1,0.4,0.4
	C-0.1,1-0.1,2,0.4,2.6l34.9,34.9L0.4,72.4c-0.6,0.6-0.6,1.5,0,2.1C0.7,74.9,1.1,75,1.5,75s0.8-0.1,1.1-0.4l34.9-34.9l34.9,34.9
	c0.3,0.3,0.7,0.4,1.1,0.4s0.8-0.1,1.1-0.4c0.6-0.6,0.6-1.5,0-2.1L39.6,37.5z"/>
</svg>
