<?xml version="1.0" encoding="utf-8"?>
<!-- Generator: Adobe Illustrator 24.2.0, SVG Export Plug-In . SVG Version: 6.00 Build 0)  -->
<svg version="1.1" id="Capa_1" xmlns="http://www.w3.org/2000/svg" xmlns:xlink="http://www.w3.org/1999/xlink" x="0px" y="0px"
	 viewBox="0 0 74.9 41.4" style="enable-background:new 0 0 74.9 41.4;" xml:space="preserve">
<style type="text/css">
	.st0{fill:#4452CF;}
</style>
<path class="st0" d="M55.6,7.4v12.7l9.3,9.3c0.6,0.6,0.6,1.5,0,2.1c-0.3,0.3-0.7,0.4-1.1,0.4s-0.8-0.1-1.1-0.4l-9.7-9.7
	c-0.1-0.1-0.2-0.3-0.3-0.5c0,0,0,0,0,0c-0.1-0.2-0.1-0.4-0.1-0.5V7.4c0-0.8,0.7-1.5,1.5-1.5S55.6,6.6,55.6,7.4z M68.8,6.1
	C64.9,2.2,59.7,0,54.1,0c0,0,0,0,0,0h-3.2H1.5C0.7,0,0,0.7,0,1.5S0.7,3,1.5,3h49.4h3.2c0,0,0,0,0,0c4.7,0,9.2,1.8,12.5,5.2
	c6.9,6.9,6.9,18.2,0,25.1c-6.9,6.9-18.2,6.9-25.1,0c-0.1-0.1-0.3-0.2-0.5-0.3c0,0,0,0,0,0c-0.2-0.1-0.4-0.1-0.5-0.1h-5.9
	c-0.8,0-1.5,0.7-1.5,1.5s0.7,1.5,1.5,1.5H40c4,3.7,9.1,5.6,14.2,5.6c5.3,0,10.6-2,14.7-6.1C76.9,27.3,76.9,14.1,68.8,6.1z M42,12.4
	c0-0.8-0.7-1.5-1.5-1.5H12.3c-0.8,0-1.5,0.7-1.5,1.5s0.7,1.5,1.5,1.5h28.2C41.4,13.9,42,13.3,42,12.4z M36.1,23.4
	c0-0.8-0.7-1.5-1.5-1.5H23.5c-0.8,0-1.5,0.7-1.5,1.5s0.7,1.5,1.5,1.5h11.1C35.5,24.9,36.1,24.2,36.1,23.4z"/>
</svg>
