<?xml version="1.0" encoding="utf-8"?>
<!-- Generator: Adobe Illustrator 24.2.0, SVG Export Plug-In . SVG Version: 6.00 Build 0)  -->
<svg version="1.1" id="Capa_1" xmlns="http://www.w3.org/2000/svg" xmlns:xlink="http://www.w3.org/1999/xlink" x="0px" y="0px"
	 viewBox="0 0 48 75.2" style="enable-background:new 0 0 48 75.2;" xml:space="preserve">
<style type="text/css">
	.st0{fill:none;}
</style>
<g>
	<path class="st0" d="M24,12.6c-0.8,0-1.5,0.7-1.5,1.5v11.2c0,0.8,0.7,1.5,1.5,1.5s1.5-0.7,1.5-1.5V14.1
		C25.5,13.3,24.8,12.6,24,12.6z"/>
	<path class="st0" d="M24,0C10.8,0,0,10.8,0,24v27.2c0,13.2,10.8,24,24,24s24-10.8,24-24V24C48,10.8,37.2,0,24,0z M45,51.2
		c0,11.6-9.4,21-21,21s-21-9.4-21-21V24C3,12.4,12.4,3,24,3s21,9.4,21,21V51.2z"/>
</g>
</svg>
